<svg width="121" height="36" viewBox="0 0 121 36" fill="none" xmlns="http://www.w3.org/2000/svg">
<path fill-rule="evenodd" clip-rule="evenodd" d="M37.7874 24.6568C37.8423 24.7948 37.8971 24.9328 37.952 25.0671C38.3794 26.3093 38.5112 27.4843 38.2484 28.6595C37.8865 31.1438 36.2742 33.2925 33.9717 34.2325C33.1496 34.6019 32.2284 34.7697 31.3073 34.7697C31.0444 34.7697 30.7153 34.7361 30.4524 34.7026C29.3667 34.5682 28.2482 34.199 27.1624 33.5611C25.8466 32.7889 24.5308 31.681 23.0839 30.0695C21.6362 31.681 20.3532 32.7889 19.0046 33.5611C17.9196 34.199 16.8011 34.5682 15.7153 34.7026C15.4525 34.7361 15.1233 34.7697 14.8597 34.7697C13.9393 34.7697 13.0509 34.6019 12.1953 34.2325C9.92551 33.2925 8.2813 31.1774 7.91938 28.6595C7.75481 27.4508 7.88663 26.2757 8.31406 25.0335C8.47863 24.5971 8.64321 24.1942 8.80779 23.8249C8.93117 23.5413 9.05455 23.265 9.17462 22.9961L9.17465 22.9961L9.17469 22.996C9.3104 22.6921 9.44189 22.3977 9.56438 22.1127L9.59714 22.0456C11.8669 17.0096 14.334 11.9065 16.8666 6.87053L16.9649 6.66914C17.2171 6.18731 17.4686 5.67479 17.7208 5.16094L17.755 5.09115C18.0834 4.48689 18.4453 3.84898 18.939 3.24466C20.0248 1.96889 21.5044 1.23029 23.1494 1.23029C24.7616 1.23029 26.2748 1.96889 27.327 3.31181C27.8142 3.87107 28.1325 4.45904 28.4375 5.0226L28.511 5.15831L28.5468 5.23124C28.7985 5.74404 29.0494 6.25545 29.3004 6.73622L29.3994 6.93769C31.9648 11.9737 34.3991 17.0767 36.6689 22.1127L36.7017 22.1463C36.8243 22.4315 36.9559 22.7262 37.0917 23.0304C37.2117 23.299 37.335 23.5751 37.4583 23.8585C37.568 24.1047 37.6777 24.3807 37.7874 24.6568ZM63.3468 9.65719C63.3468 10.8658 62.3928 11.8394 61.208 11.8394C60.024 11.8394 59.0701 10.8658 59.0701 9.65719C59.0701 8.44852 59.9913 7.47494 61.208 7.47494C62.4256 7.50848 63.3468 8.48214 63.3468 9.65719ZM54.5306 14.0552V14.5923C54.5306 14.5923 53.5112 13.2494 51.3405 13.2494C47.7549 13.2494 44.9586 16.036 44.9586 19.8969C44.9586 23.7242 47.7213 26.5443 51.3405 26.5443C53.5439 26.5443 54.5306 25.1679 54.5306 25.1679V25.7386C54.5306 26.0072 54.7279 26.2086 54.9916 26.2086H57.656V13.5851H54.9916C54.7279 13.5851 54.5306 13.8201 54.5306 14.0552ZM51.8662 23.5227C53.051 23.5227 54.0377 22.8848 54.5306 22.1462V17.6474C54.0704 16.9423 53.0174 16.2709 51.8662 16.2709C49.761 16.2709 48.1495 17.6138 48.1495 19.8968C48.1495 22.1797 49.761 23.5227 51.8662 23.5227ZM59.6294 13.5852H62.7876V26.2086H59.6294V13.5852ZM103.61 14.5924C103.61 14.5924 104.629 13.2495 106.801 13.2495C110.353 13.2495 113.149 16.0696 113.149 19.8969C113.149 23.7242 110.353 26.5443 106.767 26.5443C104.596 26.5443 103.577 25.1679 103.577 25.1679V25.7386C103.577 25.9736 103.38 26.2086 103.116 26.2086H100.452V7.50845H103.61V14.5924ZM106.274 23.4892C105.057 23.4892 104.103 22.8513 103.61 22.1127V17.6139C104.103 16.9424 105.156 16.2374 106.274 16.2374C108.379 16.2374 109.991 17.5804 109.991 19.8633C109.991 22.1463 108.379 23.4892 106.274 23.4892ZM98.8065 26.2422V18.7218C98.8065 16.6067 98.3791 15.3981 97.2606 14.458C96.3394 13.6523 95.1882 13.2494 93.8068 13.2494C92.59 13.2494 91.3725 13.6188 90.4513 14.5923V14.0552C90.4513 13.8201 90.254 13.5851 89.9911 13.5851H87.4912V26.2086H90.6494V17.4125C91.2742 16.6739 92.2609 16.1702 93.2148 16.1702C94.9908 16.1702 95.6491 17.0096 95.6491 19.0911V26.2422H98.8065ZM79.8271 13.2495C77.6557 13.2495 76.6362 14.5924 76.6362 14.5924V7.50845H73.4781V26.2086H76.1425C76.4061 26.2086 76.6035 25.9736 76.6035 25.7386V25.1679C76.6035 25.1679 77.6229 26.5443 79.7936 26.5443C83.3792 26.5443 86.1755 23.7242 86.1755 19.8969C86.2082 16.0696 83.412 13.2495 79.8271 13.2495ZM76.6362 22.1127C77.1291 22.8513 78.0831 23.4892 79.3006 23.4892C81.4058 23.4892 83.0173 22.1463 83.0173 19.8633C83.0173 17.5804 81.4058 16.2374 79.3006 16.2374C78.1821 16.2374 77.1291 16.9424 76.6362 17.6139V22.1127ZM70.7481 13.2494C71.702 13.2494 72.195 13.4173 72.195 13.4173V16.4053C72.195 16.4053 69.5633 15.4988 67.9191 17.4125V26.2422H64.7609V13.5851H67.4253C67.689 13.5851 67.8863 13.8201 67.8863 14.0552V14.5923C68.4783 13.8873 69.7614 13.2494 70.7481 13.2494ZM23.1166 26.813C21.3406 24.53 20.1886 22.3813 19.7939 20.5684C19.6301 19.7962 19.5966 19.1247 19.6956 18.5205C19.7611 17.9833 19.9585 17.5133 20.2221 17.1103C20.8469 16.2039 21.8991 15.6332 23.1166 15.6332C24.3334 15.6332 25.4192 16.1703 26.0112 17.1103C26.2748 17.5133 26.4721 17.9833 26.5377 18.5205C26.6359 19.1247 26.6032 19.8297 26.4386 20.5684C26.0439 22.3478 24.8927 24.4964 23.1166 26.813ZM33.2479 32.3188C34.8601 31.6474 36.0114 30.1366 36.2415 28.3908C36.3733 27.5179 36.2742 26.6786 36.0114 25.8057C35.9432 25.5745 35.8438 25.3432 35.7351 25.09C35.686 24.9756 35.6349 24.8567 35.584 24.7314C35.4513 24.4611 35.3272 24.1738 35.203 23.8867C35.0805 23.6031 34.958 23.3196 34.8274 23.0527V23.0191C32.5576 18.0168 30.1233 12.9137 27.6234 7.91133L27.5244 7.70986C27.3929 7.45804 27.2613 7.19786 27.1297 6.93767C26.9981 6.67749 26.8664 6.41731 26.735 6.16549C26.4721 5.62831 26.1758 5.12475 25.8138 4.68827C25.1228 3.88254 24.2024 3.44609 23.1822 3.44609C22.1627 3.44609 21.2416 3.88254 20.5505 4.68827C20.1886 5.12475 19.893 5.62831 19.6301 6.16549C19.4983 6.41731 19.3667 6.67749 19.235 6.93767C19.1034 7.19786 18.9718 7.45804 18.84 7.70986L18.7417 7.91133C16.2091 12.8801 13.7747 17.9832 11.505 22.9856L11.4722 23.0527C11.2086 23.6235 10.9457 24.1942 10.7156 24.7314C10.6653 24.8546 10.6149 24.9716 10.5664 25.0843C10.4565 25.3397 10.3562 25.5727 10.2874 25.8057C9.95905 26.7457 9.89276 27.5851 9.99181 28.4244C10.2219 30.1702 11.3732 31.681 12.9854 32.3524C13.742 32.6546 14.5969 32.7888 15.4853 32.6882C16.3074 32.5875 17.1295 32.3188 17.9851 31.8153C19.1691 31.1438 20.3867 30.103 21.7353 28.5587C19.5966 25.8392 18.248 23.3213 17.755 21.1055C17.4914 20.0983 17.4586 19.1247 17.5904 18.2518C17.7215 17.4124 18.0179 16.6402 18.4781 15.9688C19.4983 14.4916 21.2088 13.5851 23.1166 13.5851C25.0245 13.5851 26.735 14.458 27.7544 15.9688C28.2154 16.6402 28.511 17.4124 28.6429 18.2518C28.7419 19.1247 28.7084 20.0647 28.4783 21.1055C27.9853 23.3213 26.6695 25.8057 24.498 28.5251C25.8794 30.0695 27.0642 31.1102 28.2482 31.7817C29.103 32.2853 29.9259 32.5538 30.748 32.6546C31.6037 32.7553 32.4585 32.6546 33.2479 32.3188Z" fill="white"/>
</svg>
