<svg width="121" height="36" viewBox="0 0 121 36" fill="none" xmlns="http://www.w3.org/2000/svg">
<path fill-rule="evenodd" clip-rule="evenodd" d="M70.8843 25.3328C65.8711 29.0283 58.606 31 52.3504 31C43.5787 31 35.6822 27.7551 29.7084 22.3583C29.2391 21.9339 29.6595 21.3555 30.2225 21.6861C36.6697 25.4379 44.6412 27.6951 52.8759 27.6951C58.4292 27.6951 64.5382 26.5458 70.1559 24.161C71.0041 23.8005 71.7137 24.7168 70.8843 25.3328Z" fill="white"/>
<path fill-rule="evenodd" clip-rule="evenodd" d="M72.9685 22.9482C72.3297 22.1294 68.7326 22.5613 67.1178 22.7529C66.6265 22.813 66.5507 22.3849 66.9939 22.0769C69.8594 20.0601 74.5605 20.6423 75.108 21.3183C75.6564 21.998 74.9654 26.7114 72.2735 28.961C71.8604 29.3065 71.4661 29.1224 71.6502 28.6643C72.2548 27.1545 73.6105 23.7707 72.9685 22.9482Z" fill="white"/>
<path fill-rule="evenodd" clip-rule="evenodd" d="M67.2309 7.83932V5.87886C67.2309 5.58213 67.4558 5.38309 67.7263 5.38309H76.5011C76.783 5.38309 77.0079 5.58588 77.0079 5.87886V7.55758C77.0046 7.83932 76.7675 8.20734 76.3471 8.78948L71.8 15.283C73.4898 15.2417 75.2733 15.4932 76.8058 16.357C77.1513 16.5523 77.245 16.8377 77.2711 17.1195V19.2114C77.2711 19.4968 76.9558 19.8311 76.625 19.6583C73.9257 18.2424 70.34 18.0884 67.3547 19.6733C67.05 19.8386 66.7314 19.508 66.7314 19.2226V17.2359C66.7314 16.9166 66.7347 16.3721 67.0541 15.8876L72.3223 8.33126H67.7377C67.4558 8.33126 67.2309 8.13222 67.2309 7.83932Z" fill="white"/>
<path fill-rule="evenodd" clip-rule="evenodd" d="M35.2203 20.0716H32.5512C32.2953 20.0528 32.0925 19.8612 32.0737 19.6171V5.91284C32.0737 5.63867 32.3027 5.42081 32.5887 5.42081H35.0777C35.3368 5.43205 35.5438 5.6311 35.5625 5.87902V7.67042H35.6114C36.2607 5.93907 37.4812 5.13165 39.1254 5.13165C40.7965 5.13165 41.8401 5.93907 42.5913 7.67042C43.2374 5.93907 44.7056 5.13165 46.2789 5.13165C47.3976 5.13165 48.6213 5.59354 49.3693 6.63014C50.2133 7.7831 50.0406 9.45814 50.0406 10.9266L50.0374 19.5758C50.0374 19.85 49.8084 20.0716 49.5224 20.0716H46.8566C46.5901 20.0528 46.3759 19.8387 46.3759 19.5758V12.3124C46.3759 11.7341 46.4288 10.2919 46.3009 9.74355C46.1021 8.82345 45.5049 8.56428 44.7317 8.56428C44.0856 8.56428 43.4102 8.99618 43.1356 9.68725C42.8618 10.3782 42.8879 11.535 42.8879 12.3124V19.5758C42.8879 19.85 42.659 20.0716 42.3738 20.0716H39.7079C39.4374 20.0528 39.2272 19.8387 39.2272 19.5758L39.2232 12.3124C39.2232 10.7838 39.4749 8.53421 37.579 8.53421C35.6603 8.53421 35.7352 10.7275 35.7352 12.3124V19.5758C35.7352 19.85 35.5063 20.0716 35.2203 20.0716Z" fill="white"/>
<path fill-rule="evenodd" clip-rule="evenodd" d="M84.5631 5.13165C88.5245 5.13165 90.6681 8.53421 90.6681 12.8607C90.6681 17.0408 88.2988 20.357 84.5631 20.357C80.6727 20.357 78.5552 16.9543 78.5552 12.7143C78.5552 8.44785 80.6996 5.13165 84.5631 5.13165ZM84.586 7.92966C82.6183 7.92966 82.4945 10.6113 82.4945 12.2825C82.4945 13.9575 82.4676 17.5329 84.5632 17.5329C86.6318 17.5329 86.7296 14.6485 86.7296 12.8909C86.7296 11.7341 86.6807 10.3521 86.332 9.25542C86.0313 8.30151 85.4341 7.92966 84.586 7.92966Z" fill="white"/>
<path fill-rule="evenodd" clip-rule="evenodd" d="M95.8051 20.0716H93.1466C92.8801 20.0528 92.6659 19.8387 92.6659 19.5758L92.6626 5.8677C92.6846 5.6161 92.9062 5.42081 93.1767 5.42081H95.6511C95.8841 5.43205 96.0756 5.58979 96.1277 5.8039V7.89952H96.1766C96.9237 6.02543 97.9715 5.13165 99.8153 5.13165C101.013 5.13165 102.181 5.56355 102.932 6.74657C103.63 7.84322 103.63 9.68725 103.63 11.0129V19.6397C103.6 19.88 103.379 20.0716 103.116 20.0716H100.439C100.194 20.0528 99.9921 19.8725 99.9652 19.6397V12.1959C99.9652 10.6975 100.138 8.50415 98.295 8.50415C97.6448 8.50415 97.0476 8.93988 96.751 9.60081C96.3762 10.4384 96.3273 11.2721 96.3273 12.1959V19.5758C96.3233 19.85 96.0903 20.0716 95.8051 20.0716Z" fill="white"/>
<path fill-rule="evenodd" clip-rule="evenodd" d="M60.2356 13.5254C60.2356 14.5656 60.2616 15.4332 59.7361 16.3571C59.3116 17.1082 58.6362 17.5702 57.8883 17.5702C56.8633 17.5702 56.2628 16.789 56.2628 15.636C56.2628 13.3601 58.3014 12.947 60.2356 12.947V13.5254ZM62.9275 20.0337C62.7515 20.1915 62.4957 20.2028 62.2969 20.0976C61.4104 19.3615 61.2491 19.0198 60.7651 18.3175C59.3002 19.8122 58.2606 20.2591 56.3639 20.2591C54.1152 20.2591 52.3691 18.8733 52.3691 16.0979C52.3691 13.9309 53.5408 12.4549 55.2151 11.7338C56.6645 11.0954 58.6883 10.9827 60.2356 10.8062V10.4607C60.2356 9.82598 60.2844 9.07486 59.9088 8.52654C59.5854 8.03451 58.9621 7.83172 58.4105 7.83172C57.3929 7.83172 56.4877 8.35373 56.2661 9.43539C56.2213 9.67574 56.0453 9.91235 55.8009 9.92359L53.214 9.64568C52.9957 9.59687 52.7521 9.42032 52.8156 9.08611C53.4088 5.94638 56.2474 4.99997 58.7861 4.99997C60.0848 4.99997 61.782 5.34551 62.8077 6.32948C64.1064 7.54256 63.9826 9.16123 63.9826 10.9226V15.0838C63.9826 16.3345 64.5008 16.8828 64.9888 17.5588C65.1583 17.7992 65.1958 18.0884 64.9774 18.2686C64.4332 18.7231 63.4644 19.5681 62.9316 20.0413L62.9275 20.0337Z" fill="white"/>
<path fill-rule="evenodd" clip-rule="evenodd" d="M25.2363 13.5254C25.2363 14.5656 25.2624 15.4332 24.7368 16.3571C24.3124 17.1082 23.6402 17.5702 22.8898 17.5702C21.8649 17.5702 21.2676 16.789 21.2676 15.636C21.2676 13.3601 23.3061 12.947 25.2363 12.947V13.5254ZM27.9282 20.0337C27.7522 20.1915 27.4964 20.2028 27.2976 20.0976C26.412 19.3615 26.2539 19.0198 25.7659 18.3175C24.301 19.8122 23.2654 20.2591 21.3654 20.2591C19.12 20.2591 17.3699 18.8733 17.3699 16.0979C17.3699 13.9309 18.5447 12.4549 20.2158 11.7338C21.6652 11.0954 23.6891 10.9827 25.2363 10.8062V10.4607C25.2363 9.82598 25.2852 9.07486 24.9137 8.52654C24.5869 8.03451 23.9637 7.83172 23.4153 7.83172C22.3977 7.83172 21.4893 8.35373 21.2676 9.43539C21.222 9.67574 21.046 9.91235 20.8057 9.92359L18.2148 9.64568C17.9972 9.59687 17.7569 9.42032 17.8164 9.08611C18.4136 5.94638 21.2489 4.99997 23.7868 4.99997C25.0864 4.99997 26.7835 5.34551 27.8085 6.32948C29.1072 7.54256 28.9833 9.16123 28.9833 10.9226V15.0838C28.9833 16.3345 29.5015 16.8828 29.9904 17.5588C30.1623 17.7992 30.2006 18.0884 29.9822 18.2686C29.438 18.7231 28.4692 19.5681 27.9364 20.0413L27.9282 20.0337Z" fill="white"/>
</svg>
