<svg width="121" height="36" viewBox="0 0 121 36" fill="none" xmlns="http://www.w3.org/2000/svg">
<path fill-rule="evenodd" clip-rule="evenodd" d="M67.5559 0.278473C67.7836 2.35366 66.9506 4.4393 65.7128 5.9375C64.4749 7.43665 62.4439 8.60102 60.4549 8.44713C60.1842 6.41304 61.1881 4.29069 62.3354 2.9647C63.6146 1.46732 65.7721 0.350177 67.5559 0.278473ZM74.9221 26.2765C74.7076 26.1896 70.2219 24.3728 70.1727 19.1082C70.1337 14.7169 73.6834 12.5588 73.9884 12.3735C73.9947 12.3696 74.0001 12.3666 74.0032 12.3644C71.9207 9.3155 68.6767 8.8968 67.5208 8.84868C65.8321 8.67755 64.1941 9.32377 62.8565 9.85143C62.007 10.1864 61.2793 10.4736 60.7357 10.4736C60.1296 10.4736 59.3808 10.1767 58.5408 9.84347C57.441 9.40715 56.1844 8.90874 54.8866 8.93346C51.8766 8.97722 49.1037 10.6827 47.5523 13.3757C44.4293 18.7988 46.7552 26.8328 49.7987 31.2332C51.2885 33.3844 53.0637 35.8074 55.3951 35.7192C56.4379 35.6782 57.1797 35.3624 57.9464 35.0357C58.8309 34.6591 59.749 34.2681 61.2021 34.2681C62.5897 34.2681 63.4672 34.6478 64.3111 35.0129C65.1169 35.3615 65.8922 35.6968 67.0512 35.6755C69.4668 35.6309 70.9995 33.4797 72.4768 31.3206C74.1312 28.9035 74.8441 26.5608 74.9236 26.2988C74.9267 26.29 74.9283 26.2836 74.9299 26.2796C74.9291 26.2792 74.9267 26.2782 74.9221 26.2765Z" fill="white"/>
</svg>
