<svg width="121" height="36" viewBox="0 0 121 36" fill="none" xmlns="http://www.w3.org/2000/svg">
<g clip-path="url(#clip0_173_17206)">
<path d="M19.1206 3.00145V26.1747L22.1023 26.1839V15.1485H29.2915V12.2316H22.1023V5.91691H31.4652V3L19.1206 3.00145Z" fill="white"/>
<path d="M36.832 7.7055C37.9061 7.7055 38.7766 6.83487 38.7766 5.76089C38.7766 4.68691 37.9061 3.81628 36.832 3.81628C35.7581 3.81628 34.8875 4.68691 34.8875 5.76089C34.8875 6.83487 35.7581 7.7055 36.832 7.7055Z" fill="white"/>
<path d="M35.3154 10.6225V26.1794H38.2972V10.6225H35.3154Z" fill="white"/>
<path fill-rule="evenodd" clip-rule="evenodd" d="M49.3563 10.1686C45.3968 10.1686 42.6335 13.5174 42.6335 17.4933C42.6335 21.4692 45.3968 24.818 49.3563 24.818C51.1691 24.818 52.663 24.1161 53.7502 22.9737V25.0449C53.7502 27.6223 51.7256 29.7767 49.0832 29.7767C48.1334 29.7767 47.1898 29.4086 46.4379 28.8904L44.9439 31.478C46.1371 32.2472 47.558 32.6936 49.0832 32.6936C53.3076 32.6936 56.7319 29.2691 56.7319 25.0449V10.6223H53.7502V12.0129C52.663 10.8704 51.1691 10.1686 49.3563 10.1686ZM45.6153 17.4933C45.6153 15.0253 47.5031 13.0855 49.6804 13.0855C51.8579 13.0855 53.7456 15.0253 53.7456 17.4933C53.7456 19.9612 51.8579 21.9011 49.6804 21.9011C47.5031 21.9011 45.6153 19.9612 45.6153 17.4933Z" fill="white"/>
<path d="M67.4759 13.0855C65.7128 13.0855 64.2835 14.5796 64.2835 16.3427V26.1792H61.3018V10.6223H64.2835V12.0474C65.1572 10.9181 66.4443 10.1686 68.1241 10.1686C70.2134 10.1686 71.8169 11.2063 72.7457 12.7945C73.7784 11.2605 75.463 10.1686 77.4906 10.1686C80.8843 10.1686 82.9966 12.9066 83.0166 16.2941C83.0166 16.3043 83.0166 16.3145 83.0166 16.3249V16.3254V16.3259V16.3265C83.0166 16.3319 83.0166 16.3373 83.0166 16.3427V26.1792H80.0349V16.3427C80.0349 14.5796 78.6055 13.0855 76.8424 13.0855C75.0792 13.0855 73.65 14.5796 73.65 16.3427V26.1792H70.6683V16.3427C70.6683 14.5796 69.239 13.0855 67.4759 13.0855Z" fill="white"/>
<path fill-rule="evenodd" clip-rule="evenodd" d="M98.8976 12.3859C97.571 11.0161 95.7544 10.1686 93.6471 10.1686C89.2113 10.1686 86.0632 13.9243 86.0632 18.4007C86.0632 22.8772 89.2113 26.6329 93.6471 26.6329C95.7544 26.6329 97.571 25.7854 98.8976 24.4157V26.1792H101.879V10.6223H98.8976V12.3859ZM89.045 18.4007C89.045 15.431 91.3189 13.0855 93.9713 13.0855C96.6236 13.0855 98.8976 15.431 98.8976 18.4007C98.8976 21.3706 96.6236 23.716 93.9713 23.716C91.3189 23.716 89.045 21.3706 89.045 18.4007Z" fill="white"/>
</g>
<defs>
<clipPath id="clip0_173_17206">
<rect width="82.7586" height="30" fill="white" transform="translate(19.1206 3)"/>
</clipPath>
</defs>
</svg>
