<svg width="121" height="36" viewBox="0 0 121 36" fill="none" xmlns="http://www.w3.org/2000/svg">
<g clip-path="url(#clip0_173_17233)">
<path d="M60.6234 11.5C56.1384 11.5 52.9045 14.425 52.9045 18.8125C52.9045 23.2 56.5406 26.125 61.0298 26.125C63.7392 26.125 66.1281 25.0525 67.6068 23.2447L64.499 21.4491C63.6784 22.3469 62.4312 22.8709 61.0298 22.8709C59.0837 22.8709 57.4304 21.8553 56.8168 20.2303H68.2001C68.2892 19.7753 68.3423 19.3041 68.3423 18.8084C68.3423 14.425 65.1126 11.5 60.6234 11.5ZM56.7843 17.3906C57.292 15.7697 58.6815 14.75 60.6234 14.75C62.5692 14.75 63.9587 15.7697 64.4626 17.3906H56.7843ZM55.8662 7.03125L44.609 26.5312L33.3478 7.03125H37.5687L44.6051 19.2188L51.6412 7.03125H55.8662ZM17.8169 5L32.8278 31H2.80591L17.8169 5ZM84.6734 18.8125C84.6734 21.25 86.2659 22.875 88.7359 22.875C90.4098 22.875 91.6651 22.1153 92.3109 20.8763L95.4309 22.6759C94.139 24.8291 91.7178 26.125 88.7359 26.125C84.2467 26.125 81.0173 23.2 81.0173 18.8125C81.0173 14.425 84.2509 11.5 88.7359 11.5C91.7178 11.5 94.1351 12.7959 95.4309 14.9491L92.3109 16.7488C91.6651 15.5097 90.4098 14.75 88.7359 14.75C86.2701 14.75 84.6734 16.375 84.6734 18.8125ZM118.181 7.03125V25.7188H114.525V7.03125H118.181ZM104.368 11.5C99.8834 11.5 96.6498 14.425 96.6498 18.8125C96.6498 23.2 100.29 26.125 104.775 26.125C107.484 26.125 109.873 25.0525 111.352 23.2447L108.244 21.4491C107.423 22.3469 106.176 22.8709 104.775 22.8709C102.829 22.8709 101.175 21.8553 100.562 20.2303H111.945C112.034 19.7753 112.087 19.3041 112.087 18.8084C112.087 14.425 108.858 11.5 104.368 11.5ZM100.529 17.3906C101.037 15.7697 102.423 14.75 104.368 14.75C106.314 14.75 107.704 15.7697 108.208 17.3906H100.529ZM79.7984 11.9062V15.8428C79.3923 15.725 78.9615 15.6438 78.4984 15.6438C76.1381 15.6438 74.4359 17.2688 74.4359 19.7063V25.7188H70.7798V11.9062H74.4359V15.6438C74.4359 13.58 76.8367 11.9062 79.7984 11.9062Z" fill="white"/>
</g>
<defs>
<clipPath id="clip0_173_17233">
<rect width="115.388" height="26" fill="white" transform="translate(2.80591 5)"/>
</clipPath>
</defs>
</svg>
