<svg width="121" height="36" viewBox="0 0 121 36" fill="none" xmlns="http://www.w3.org/2000/svg">
<g clip-path="url(#clip0_173_17193)">
<path fill-rule="evenodd" clip-rule="evenodd" d="M35.3482 5.77651C36.9472 6.20455 38.2039 7.46113 38.6318 9.06014C39.4053 11.9555 39.4085 17.9999 39.4085 17.9999C39.4085 17.9999 39.4085 24.0444 38.6318 26.9397C38.2039 28.5387 36.9472 29.7953 35.3482 30.2233C32.4529 30.9999 20.8378 30.9999 20.8378 30.9999C20.8378 30.9999 9.22288 30.9999 6.32753 30.2233C4.72853 29.7953 3.47194 28.5387 3.04391 26.9397C2.26733 24.0444 2.26733 17.9999 2.26733 17.9999C2.26733 17.9999 2.26733 11.9555 3.04391 9.06014C3.47194 7.46113 4.72853 6.20455 6.32753 5.77651C9.22288 4.99994 20.8378 4.99994 20.8378 4.99994C20.8378 4.99994 32.4529 4.99994 35.3482 5.77651ZM26.7695 18.0002L17.1204 23.5707V12.4296L26.7695 18.0002Z" fill="white"/>
<path d="M47.2506 21.9048L43.0803 6.84415H46.7186L48.1801 13.6713C48.5531 15.3528 48.8252 16.7867 49.0025 17.973H49.1095C49.2318 17.123 49.507 15.6983 49.932 13.6957L51.4453 6.84415H55.0836L50.8613 21.9048V29.1294H47.2476V21.9048H47.2506Z" fill="white"/>
<path d="M56.1781 28.6519C55.4444 28.1566 54.9215 27.3861 54.6096 26.3405C54.3009 25.2949 54.145 23.9069 54.145 22.1703V19.8069C54.145 18.055 54.3223 16.6456 54.677 15.5847C55.0316 14.5238 55.585 13.7472 56.3371 13.2611C57.0893 12.775 58.0767 12.5304 59.2998 12.5304C60.5044 12.5304 61.4674 12.778 62.195 13.2733C62.9196 13.7686 63.4516 14.5452 63.7879 15.5969C64.1242 16.6517 64.2924 18.055 64.2924 19.8069V22.1703C64.2924 23.9069 64.1273 25.301 63.8003 26.3527C63.473 27.4076 62.9411 28.1781 62.2072 28.6641C61.4735 29.1503 60.4768 29.3949 59.2202 29.3949C57.9239 29.3979 56.9119 29.1472 56.1781 28.6519ZM60.2934 26.1021C60.4951 25.5701 60.5991 24.7049 60.5991 23.5003V18.4281C60.5991 17.2601 60.4982 16.4041 60.2934 15.866C60.0885 15.3248 59.7309 15.0558 59.2171 15.0558C58.7219 15.0558 58.3703 15.3248 58.1685 15.866C57.9636 16.4071 57.8628 17.2601 57.8628 18.4281V23.5003C57.8628 24.7049 57.9605 25.5731 58.1563 26.1021C58.352 26.6341 58.7035 26.9 59.2171 26.9C59.7309 26.9 60.0885 26.6341 60.2934 26.1021Z" fill="white"/>
<path d="M76.1275 29.1323H73.2597L72.9417 27.1389H72.8623C72.0826 28.6431 70.9146 29.3952 69.3554 29.3952C68.2762 29.3952 67.4782 29.0405 66.9646 28.3344C66.451 27.625 66.1941 26.5183 66.1941 25.0141V12.8487H69.86V24.7999C69.86 25.5277 69.9394 26.0443 70.0984 26.3532C70.2574 26.6619 70.5234 26.8178 70.8963 26.8178C71.2143 26.8178 71.5201 26.72 71.8136 26.5244C72.1071 26.3286 72.3211 26.081 72.4648 25.7814V12.8456H76.1275V29.1323Z" fill="white"/>
<path d="M86.0856 9.79399H82.4473V29.1319H78.861V9.79399H75.2227V6.84668H86.0856V9.79399Z" fill="white"/>
<path d="M94.9273 29.1323H92.0595L91.7415 27.1389H91.6621C90.8825 28.6431 89.7146 29.3952 88.1552 29.3952C87.076 29.3952 86.278 29.0405 85.7644 28.3344C85.2508 27.625 84.9939 26.5183 84.9939 25.0141V12.8487H88.6598V24.7999C88.6598 25.5277 88.7392 26.0443 88.8982 26.3532C89.0572 26.6619 89.3232 26.8178 89.6963 26.8178C90.0141 26.8178 90.3199 26.72 90.6134 26.5244C90.9069 26.3286 91.1209 26.081 91.2646 25.7814V12.8456H94.9273V29.1323Z" fill="white"/>
<path d="M107.059 15.4504C106.836 14.4232 106.478 13.6802 105.983 13.2185C105.488 12.7569 104.806 12.5276 103.938 12.5276C103.265 12.5276 102.635 12.7171 102.051 13.0993C101.467 13.4815 101.015 13.9798 100.697 14.6005H100.669V6.02148H97.1379V29.1291H100.165L100.538 27.5883H100.617C100.902 28.1385 101.327 28.5696 101.892 28.8907C102.458 29.2087 103.088 29.3677 103.779 29.3677C105.017 29.3677 105.931 28.7959 106.515 27.6555C107.099 26.512 107.392 24.7296 107.392 22.3021V19.7247C107.392 17.9055 107.279 16.4777 107.059 15.4504ZM103.699 22.0941C103.699 23.2803 103.65 24.2098 103.552 24.8824C103.455 25.5551 103.292 26.0351 103.06 26.3163C102.831 26.6006 102.519 26.7413 102.131 26.7413C101.828 26.7413 101.55 26.671 101.293 26.5273C101.036 26.3867 100.828 26.1727 100.669 25.8914V16.6489C100.791 16.2056 101.006 15.8448 101.308 15.5605C101.608 15.2762 101.938 15.1355 102.29 15.1355C102.663 15.1355 102.95 15.2823 103.152 15.5727C103.357 15.8662 103.497 16.3554 103.577 17.0464C103.656 17.7374 103.696 18.7188 103.696 19.9937V22.0941H103.699Z" fill="white"/>
<path d="M112.593 23.0327C112.593 24.0783 112.624 24.861 112.685 25.3839C112.746 25.9066 112.874 26.2858 113.07 26.5273C113.266 26.7658 113.565 26.885 113.972 26.885C114.519 26.885 114.898 26.671 115.1 26.246C115.305 25.821 115.415 25.1118 115.433 24.1212L118.595 24.3076C118.613 24.4483 118.622 24.6439 118.622 24.8916C118.622 26.3958 118.209 27.5209 117.387 28.2639C116.565 29.0068 115.4 29.3798 113.895 29.3798C112.089 29.3798 110.823 28.8142 110.098 27.6799C109.371 26.5457 109.01 24.7938 109.01 22.4212V19.5778C109.01 17.135 109.386 15.3495 110.138 14.2244C110.89 13.0993 112.177 12.5367 114.002 12.5367C115.259 12.5367 116.225 12.766 116.898 13.2277C117.57 13.6893 118.044 14.4048 118.319 15.3801C118.595 16.3554 118.732 17.7006 118.732 19.4188V22.2072H112.593V23.0327ZM113.058 15.3587C112.871 15.588 112.749 15.964 112.685 16.4868C112.624 17.0097 112.593 17.8015 112.593 18.8655V20.0335H115.274V18.8655C115.274 17.8199 115.238 17.028 115.167 16.4868C115.097 15.9457 114.969 15.5666 114.782 15.3434C114.596 15.1233 114.308 15.0101 113.92 15.0101C113.529 15.0132 113.241 15.1294 113.058 15.3587Z" fill="white"/>
</g>
<defs>
<clipPath id="clip0_173_17193">
<rect width="116.465" height="26" fill="white" transform="translate(2.26758 5)"/>
</clipPath>
</defs>
</svg>
